<?xml version="1.0" encoding="UTF-8"?>
<svg width="71px" height="58px" viewBox="0 0 71 58" version="1.1" xmlns="http://www.w3.org/2000/svg" xmlns:xlink="http://www.w3.org/1999/xlink">
    <!-- Generator: Sketch 51.1 (57501) - http://www.bohemiancoding.com/sketch -->
    <title>logo_ironhack_blue (1)</title>
    <desc>Created with Sketch.</desc>
    <defs>
        <polygon id="path-1" points="3.04858357e-05 0 70.9952314 0 70.9952314 76.8782627 3.04858357e-05 76.8782627"></polygon>
    </defs>
    <g id="Page-1" stroke="none" stroke-width="1" fill="none" fill-rule="evenodd">
        <g id="Home-Copy" transform="translate(-53.000000, 0.000000)">
            <g id="logo_ironhack_blue-(1)" transform="translate(53.000000, -19.000000)">
                <g id="Group">
                    <g id="Clipped">
                        <mask id="mask-2" fill="white">
                            <use xlink:href="#path-1"></use>
                        </mask>
                        <g id="a"></g>
                        <path d="M2.4512305,59.3356167 C0.940755235,58.5038533 2.50327356e-05,56.8990498 2.50327356e-05,55.1541373 L2.50327356e-05,21.7240864 C2.50327356e-05,19.979299 0.940755235,18.3743701 2.4512305,17.542732 L33.2650261,17.542732 C34.6575971,16.7758269 36.3375441,16.7758269 37.7301151,17.542732 L68.5440357,17.542732 C70.054511,18.3743701 70.9952411,19.979299 70.9952411,21.7240864 L70.9952411,55.1541373 C70.9952411,56.8990498 70.054511,58.5038533 68.5440357,59.3356167 L37.7301151,76.3031888 C36.3375441,77.0699685 34.6575971,77.0699685 33.2650261,76.3031888 L2.4512305,59.3356167 Z" id="Shape" fill="#32C3FF" fill-rule="nonzero" mask="url(#mask-2)"></path>
                    </g>
                    <path d="M37.7723577,43 C37.7723577,43 33.0528455,43 37.7723577,43 Z M22.7546177,35.490679 C22.7546177,35.490679 22.7981374,35.4964272 22.8129177,35.4964272 C22.7923895,35.4964272 22.7689874,35.490679 22.7398374,35.4878049 L22.7546177,35.490679 Z M22.7751459,35.4935531 L22.7923895,35.4935531 C22.7923895,35.4935531 22.7574916,35.4935531 22.7398374,35.4878049 C22.7546177,35.4935531 22.7574916,35.4935531 22.7574916,35.4935531 L22.7751459,35.4935531 Z M22.7513332,35.4878049 L22.7570811,35.4878049 L22.7398374,35.4878049 L22.7513332,35.4878049 Z M22.7398374,35.4878049 L22.7808938,35.4878049 L22.7398374,35.4878049 Z M14,42.6585366 L16.796748,42.6585366 L16.796748,29 L14,29 L14,42.6585366 Z M22.7398374,35.4878049 C22.7484593,35.4878049 22.7484593,35.4935531 22.7484593,35.4935531 L22.7398374,35.4878049 Z M22.7398374,35.4878049 C22.7866416,35.4878049 22.8359092,35.499712 22.8359092,35.499712 C22.8244134,35.499712 22.7866416,35.4878049 22.7398374,35.4878049 Z M22.7398374,35.4878049 C22.7689874,35.4878049 22.7837677,35.4939637 22.7981374,35.4968378 C22.7837677,35.4939637 22.7603656,35.4878049 22.7603656,35.4878049 L22.7398374,35.4878049 Z M22.7398374,35.4161711 L22.7398374,31.1678338 C23.3217903,31.0926688 23.9784745,31.0487805 24.5363933,31.0487805 C26.5870606,31.0487805 27.2845528,31.6744411 27.2845528,33.2356287 C27.2845528,35.0358058 26.2431964,35.4878049 24.4769337,35.4878049 C23.9180135,35.4878049 23.370735,35.4833908 22.815445,35.4233597 L22.8198262,35.4260081 C22.8109385,35.4233597 22.8065573,35.4215941 22.7976697,35.4215941 L22.7879058,35.4207113 C22.7879058,35.4207113 22.7771405,35.4207113 22.771883,35.4189457 L22.7771405,35.4189457 L22.7692542,35.4189457 C22.7692542,35.4189457 22.7621191,35.4189457 22.7584889,35.4161711 L22.7621191,35.4189457 C22.7621191,35.4189457 22.7584889,35.4189457 22.7567365,35.4161711 L22.748725,35.4161711 L22.7398374,35.4161711 Z M19.9430894,29.3681228 L19.9430894,42.6585366 L22.724741,42.6585366 L22.724741,37.4978219 C23.209843,37.5270112 23.8443579,37.5577687 24.4050236,37.5577687 L27.2232936,42.6585366 L30.4308943,42.6585366 L27.2945709,37.2435615 C28.9095772,36.762421 29.9292589,35.6375477 29.9292589,33.2446291 C29.9292589,29.5899372 27.4483926,29 24.4120044,29 C22.7665031,29 21.1331263,29.1575257 19.9430894,29.3681228 Z M34.9756098,36.0047335 C34.9756098,33.264034 35.0330348,31.3902439 37.6001547,31.3902439 C40.1570201,31.3902439 40.2195122,33.264034 40.2195122,36.0047335 C40.2195122,38.7427966 40.1570201,40.6097561 37.6001547,40.6097561 C35.0330348,40.6097561 34.9756098,38.7427966 34.9756098,36.0047335 Z M32.1788618,36.0004895 C32.1788618,40.9682157 33.4237599,43 37.7767241,43 C42.1225775,43 43.3658537,40.9682157 43.3658537,36.0004895 C43.3658537,31.0309277 42.1225775,29 37.7767241,29 C33.4237599,29 32.1788618,31.0309277 32.1788618,36.0004895 Z M45.8130081,31.0856324 L45.8130081,42.8584043 L48.379887,42.8584043 L48.379887,32.759572 L52.8463487,41.1905835 C53.5706332,42.5552641 54.2308992,43 55.2786638,43 C56.3736259,43 57,42.3667959 57,40.9082486 L57,29.1407392 L54.4357576,29.1407392 L54.4357576,39.1996748 L49.965781,30.8007273 C49.2593213,29.4777789 48.5188442,29 47.5414996,29 C46.4626047,29 45.8130081,29.6228015 45.8130081,31.0856324 Z" id="Shape" fill="#FFFFFF" fill-rule="nonzero"></path>
                    <text id="POCKET" font-family="Roboto-Regular, Roboto" font-size="12" font-weight="normal" letter-spacing="0.239999995" fill="#FAFAFA">
                        <tspan x="12" y="56">POCKET</tspan>
                    </text>
                </g>
            </g>
        </g>
    </g>
</svg>